<mxfile host="app.diagrams.net" modified="2023-10-17T16:24:46.789Z" agent="Mozilla/5.0 (Windows NT 10.0; Win64; x64) AppleWebKit/537.36 (KHTML, like Gecko) Chrome/118.0.0.0 Safari/537.36" version="21.8.2" etag="mfusbxdjoXgD_UL2cllk" type="github">
  <diagram name="Page-1" id="wLdA8tXaBbBPkzVX0rYe">
    <mxGraphModel>
      <root>
        <mxCell id="0" />
        <mxCell id="1" parent="0" />
      </root>
    </mxGraphModel>
  </diagram>
</mxfile>
